<svg width="20" height="20" viewBox="0 0 20 20" fill="none" xmlns="http://www.w3.org/2000/svg">
<path d="M8.343 6.21057L5.71085 6.21057C4.72781 6.21057 3.77637 6.5967 3.07866 7.30474C2.38096 8.01278 1.98456 8.96211 2.00046 9.97589C1.98452 10.9897 2.38107 11.9391 3.07866 12.647C3.79217 13.3711 4.71185 13.7573 5.69493 13.7574H8.32708M11.657 13.7895H14.2892C15.2722 13.7895 16.2236 13.4034 16.9213 12.6953C17.619 11.9873 18.0154 11.038 17.9995 10.0242C17.9995 9.0266 17.6031 8.07723 16.9054 7.36919C16.2077 6.66115 15.2722 6.25889 14.2892 6.25888H11.657M6.0437 9.96485L13.9402 9.96485" stroke="#3F7FFF" stroke-width="2" stroke-linecap="round" stroke-linejoin="round"/>
</svg>
