<svg width="20" height="20" viewBox="0 0 20 20" fill="none" xmlns="http://www.w3.org/2000/svg">
<path fill-rule="evenodd" clip-rule="evenodd" d="M13.125 11.25C16.2317 11.25 18.75 8.7316 18.75 5.625C18.75 2.5184 16.2317 0 13.125 0C10.0185 0 7.50007 2.5184 7.50007 5.625C7.50007 6.72568 7.81621 7.75251 8.36263 8.61967L0.7323 16.25L4.47868 19.9964L6.24646 18.2286L4.26783 16.25L6.25007 14.2677L8.22868 16.2464L9.99646 14.4786L8.01783 12.5L10.1304 10.3874C10.9975 10.9339 12.0244 11.25 13.125 11.25ZM13.125 8.75C14.8509 8.75 16.25 7.35089 16.25 5.625C16.25 3.89911 14.8509 2.5 13.125 2.5C11.3992 2.5 10.0001 3.89911 10.0001 5.625C10.0001 7.35089 11.3992 8.75 13.125 8.75Z" fill="#FFBB00"/>
<path fill-rule="evenodd" clip-rule="evenodd" d="M13.125 11.25C16.2317 11.25 18.75 8.7316 18.75 5.625C18.75 2.5184 16.2317 0 13.125 0C10.0185 0 7.50007 2.5184 7.50007 5.625C7.50007 6.72568 7.81621 7.75251 8.36263 8.61967L0.7323 16.25L4.47868 19.9964L6.24646 18.2286L4.26783 16.25L6.25007 14.2677L8.22868 16.2464L9.99646 14.4786L8.01783 12.5L10.1304 10.3874C10.9975 10.9339 12.0244 11.25 13.125 11.25ZM13.125 8.75C14.8509 8.75 16.25 7.35089 16.25 5.625C16.25 3.89911 14.8509 2.5 13.125 2.5C11.3992 2.5 10.0001 3.89911 10.0001 5.625C10.0001 7.35089 11.3992 8.75 13.125 8.75Z" fill="#FFBB00"/>
</svg>
