<svg width="16" height="17" viewBox="0 0 16 17" fill="none" xmlns="http://www.w3.org/2000/svg">
<path d="M13.7972 11.9699C14.0494 11.8581 14.3442 11.9718 14.4564 12.2238C14.5686 12.4762 14.4549 12.7718 14.2025 12.884L8.7445 15.3098C8.27046 15.5204 7.72928 15.5204 7.25524 15.3098L1.79724 12.884C1.54489 12.7718 1.43118 12.4762 1.54333 12.2238C1.6555 11.9718 1.95036 11.8582 2.20251 11.9699L7.66149 14.3957C7.87696 14.4915 8.12278 14.4915 8.33825 14.3957L13.7972 11.9699ZM13.7972 8.96992C14.0494 8.85812 14.3442 8.97183 14.4564 9.22382C14.5686 9.47617 14.4549 9.77183 14.2025 9.88398L8.7445 12.3098C8.27046 12.5204 7.72928 12.5204 7.25524 12.3098L1.79724 9.88398C1.54489 9.77183 1.43118 9.47617 1.54333 9.22382C1.6555 8.97183 1.95036 8.85816 2.20251 8.96992L7.66149 11.3957C7.87696 11.4915 8.12278 11.4915 8.33825 11.3957L13.7972 8.96992ZM7.18005 2.27851C7.69618 2.02044 8.30356 2.02044 8.8197 2.27851L13.6976 4.71699C14.5575 5.14693 14.5575 6.37396 13.6976 6.8039L8.8197 9.24238C8.30356 9.50044 7.69618 9.50044 7.18005 9.24238L2.30212 6.8039C1.4424 6.37392 1.4424 5.14697 2.30212 4.71699L7.18005 2.27851Z" fill="#666666"/>
</svg>
