<svg width="16" height="17" viewBox="0 0 16 17" fill="none" xmlns="http://www.w3.org/2000/svg">
<path d="M13.7974 11.9699C14.0495 11.8581 14.3443 11.9718 14.4565 12.2238C14.5687 12.4762 14.455 12.7718 14.2026 12.884L8.74462 15.3098C8.27059 15.5204 7.7294 15.5204 7.25537 15.3098L1.79736 12.884C1.54502 12.7718 1.4313 12.4762 1.54345 12.2238C1.65562 11.9718 1.95048 11.8582 2.20263 11.9699L7.66162 14.3957C7.87709 14.4915 8.1229 14.4915 8.33837 14.3957L13.7974 11.9699ZM13.7974 8.96992C14.0495 8.85812 14.3443 8.97183 14.4565 9.22382C14.5687 9.47617 14.455 9.77183 14.2026 9.88398L8.74462 12.3098C8.27059 12.5204 7.7294 12.5204 7.25537 12.3098L1.79736 9.88398C1.54502 9.77183 1.4313 9.47617 1.54345 9.22382C1.65562 8.97183 1.95048 8.85816 2.20263 8.96992L7.66162 11.3957C7.87709 11.4915 8.1229 11.4915 8.33837 11.3957L13.7974 8.96992ZM7.18017 2.27851C7.6963 2.02044 8.30368 2.02044 8.81982 2.27851L13.6977 4.71699C14.5576 5.14693 14.5576 6.37396 13.6977 6.8039L8.81982 9.24238C8.30368 9.50044 7.6963 9.50044 7.18017 9.24238L2.30224 6.8039C1.44252 6.37392 1.44252 5.14697 2.30224 4.71699L7.18017 2.27851Z" fill="white"/>
</svg>
