<svg width="16" height="17" viewBox="0 0 16 17" fill="none" xmlns="http://www.w3.org/2000/svg">
<g clip-path="url(#clip0_84_1457)">
<path d="M12 2.09378V4.76045M12 4.76045V7.42711M12 4.76045H9.33337M12 4.76045H14.6667M2.66671 7.42711H5.33337C6.06975 7.42711 6.66671 6.83016 6.66671 6.09378V3.42711C6.66671 2.69073 6.06975 2.09378 5.33337 2.09378H2.66671C1.93033 2.09378 1.33337 2.69073 1.33337 3.42711V6.09378C1.33337 6.83016 1.93033 7.42711 2.66671 7.42711ZM6.66671 12.7604C6.66671 14.2332 5.4728 15.4271 4.00004 15.4271C2.52728 15.4271 1.33337 14.2332 1.33337 12.7604C1.33337 11.2877 2.52728 10.0938 4.00004 10.0938C5.4728 10.0938 6.66671 11.2877 6.66671 12.7604ZM10.6667 15.4271H13.3334C14.0698 15.4271 14.6667 14.8302 14.6667 14.0938V11.4271C14.6667 10.6907 14.0698 10.0938 13.3334 10.0938H10.6667C9.93033 10.0938 9.33337 10.6907 9.33337 11.4271V14.0938C9.33337 14.8302 9.93033 15.4271 10.6667 15.4271Z" stroke="white" stroke-width="1.5" stroke-linecap="round"/>
</g>
<defs>
<clipPath id="clip0_84_1457">
<rect width="16" height="16" fill="white" transform="translate(0 0.760437)"/>
</clipPath>
</defs>
</svg>
